<?xml version="1.0" encoding="UTF-8" ?>
<!DOCTYPE svg PUBLIC "-//W3C//DTD SVG 1.1//EN" "http://www.w3.org/Graphics/SVG/1.1/DTD/svg11.dtd">
<svg width="512pt" height="512pt" viewBox="0 0 512 512" version="1.1" xmlns="http://www.w3.org/2000/svg">
<g id="#f89a26ff">
<path fill="#f89a26" opacity="1.00" d=" M 55.51 24.71 C 57.97 24.24 60.48 23.99 62.99 23.99 C 191.35 24.02 319.72 23.97 448.08 24.02 C 462.95 23.88 477.35 32.84 483.83 46.21 C 486.58 51.70 487.98 57.83 488.00 63.97 C 487.99 191.64 487.97 319.31 487.96 446.97 C 488.06 458.41 482.89 469.75 474.18 477.17 C 467.05 483.49 457.57 486.95 448.06 486.96 C 323.37 486.97 198.68 486.98 73.98 486.99 C 66.33 486.90 58.47 487.62 51.08 485.17 C 34.76 480.33 22.72 464.09 23.02 447.02 C 22.98 319.01 23.00 191.00 23.01 62.99 C 23.10 44.68 37.45 27.77 55.51 24.71 M 105.02 95.02 C 101.47 95.53 97.98 96.48 94.37 96.48 C 94.17 105.96 94.67 115.46 93.87 124.92 C 93.35 131.85 94.28 138.75 94.18 145.67 C 111.65 145.18 129.16 145.43 146.60 146.63 C 152.38 147.63 158.28 147.04 164.07 147.89 C 180.80 149.64 197.56 151.47 214.02 155.02 C 225.88 156.81 237.42 160.21 248.99 163.30 C 271.59 170.49 294.19 179.84 311.92 196.04 C 323.24 206.19 330.94 219.57 337.60 233.06 C 342.01 242.85 345.41 253.03 348.73 263.22 C 358.65 299.32 363.23 336.73 364.47 374.08 C 365.72 384.35 364.92 394.72 365.25 405.03 C 365.46 410.13 364.78 415.19 364.70 420.28 C 373.13 420.64 381.61 420.08 389.98 421.31 C 398.92 421.10 407.86 421.54 416.81 421.40 C 417.70 411.31 418.49 401.20 418.87 391.06 C 419.99 381.76 419.46 372.37 419.73 363.03 C 420.10 333.74 418.73 304.41 414.34 275.46 C 409.96 245.70 402.86 215.89 388.72 189.13 C 383.04 177.49 375.22 167.01 366.49 157.48 C 346.84 138.10 322.47 123.91 296.70 114.30 C 266.10 102.65 233.59 96.83 201.04 94.12 C 196.07 93.32 191.02 93.45 186.00 93.33 C 169.39 91.69 152.67 92.70 136.01 92.76 C 125.68 93.54 115.36 94.31 105.02 95.02 M 95.59 202.65 C 95.89 225.08 95.61 247.51 95.91 269.94 C 104.87 268.29 113.86 266.71 122.96 266.22 C 135.58 264.49 148.35 265.20 161.04 265.28 C 182.72 267.11 205.30 271.54 222.91 285.15 C 234.08 293.33 240.51 306.13 245.22 318.81 C 251.23 336.88 252.62 356.08 252.72 375.01 C 252.26 390.08 251.29 405.20 248.61 420.06 C 269.60 420.08 290.58 419.81 311.57 419.79 C 314.58 396.65 313.55 373.23 313.30 349.96 C 312.86 344.66 311.76 339.43 311.68 334.11 C 310.61 321.51 308.12 309.09 305.19 296.80 C 299.72 277.16 291.93 257.38 277.45 242.54 C 267.04 232.91 255.28 224.61 242.21 218.99 C 226.39 211.43 209.30 207.07 192.15 203.78 C 183.75 202.57 175.33 201.57 166.91 200.56 C 152.95 200.28 138.96 198.61 125.02 200.24 C 115.17 200.31 105.28 200.75 95.59 202.65 M 140.07 308.11 C 126.71 310.16 114.29 317.33 105.39 327.46 C 96.72 337.61 92.58 350.87 91.52 364.01 C 91.41 368.50 93.09 372.76 93.78 377.16 C 99.17 401.22 122.30 419.74 146.91 419.95 C 161.13 420.74 175.38 415.34 186.26 406.30 C 194.29 398.91 200.51 389.45 203.56 378.93 C 205.72 371.51 205.64 363.66 205.10 356.03 C 202.97 341.97 195.62 328.43 184.20 319.80 C 171.98 309.92 155.56 305.82 140.07 308.11 Z" />
</g>
<g id="#ffffffff">
<path fill="#ffffff" opacity="1.00" d=" M 105.02 95.02 C 115.36 94.31 125.68 93.54 136.01 92.76 C 152.67 92.70 169.39 91.69 186.00 93.33 C 191.02 93.45 196.07 93.32 201.04 94.12 C 233.59 96.83 266.10 102.65 296.70 114.30 C 322.47 123.91 346.84 138.10 366.49 157.48 C 375.22 167.01 383.04 177.49 388.72 189.13 C 402.86 215.89 409.96 245.70 414.34 275.46 C 418.73 304.41 420.10 333.74 419.73 363.03 C 419.46 372.37 419.99 381.76 418.87 391.06 C 418.49 401.20 417.70 411.31 416.81 421.40 C 407.86 421.54 398.92 421.10 389.98 421.31 C 381.61 420.08 373.13 420.64 364.70 420.28 C 364.78 415.19 365.46 410.13 365.25 405.03 C 364.92 394.72 365.72 384.35 364.47 374.08 C 363.23 336.73 358.65 299.32 348.73 263.22 C 345.41 253.03 342.01 242.85 337.60 233.06 C 330.94 219.57 323.24 206.19 311.92 196.04 C 294.19 179.84 271.59 170.49 248.99 163.30 C 237.42 160.21 225.88 156.81 214.02 155.02 C 197.56 151.47 180.80 149.64 164.07 147.89 C 158.28 147.04 152.38 147.63 146.60 146.63 C 129.16 145.43 111.65 145.18 94.18 145.67 C 94.28 138.75 93.35 131.85 93.87 124.92 C 94.67 115.46 94.17 105.96 94.37 96.48 C 97.98 96.48 101.47 95.53 105.02 95.02 Z" />
<path fill="#ffffff" opacity="1.00" d=" M 95.59 202.65 C 105.28 200.75 115.17 200.31 125.02 200.24 C 138.96 198.61 152.95 200.28 166.91 200.56 C 175.33 201.57 183.75 202.57 192.15 203.78 C 209.30 207.07 226.39 211.43 242.21 218.99 C 255.28 224.61 267.04 232.91 277.45 242.54 C 291.93 257.38 299.72 277.16 305.19 296.80 C 308.12 309.09 310.61 321.51 311.68 334.11 C 311.76 339.43 312.86 344.66 313.30 349.96 C 313.55 373.23 314.58 396.65 311.57 419.79 C 290.58 419.81 269.60 420.08 248.61 420.06 C 251.29 405.20 252.26 390.08 252.72 375.01 C 252.62 356.08 251.23 336.88 245.22 318.81 C 240.51 306.13 234.08 293.33 222.91 285.15 C 205.30 271.54 182.72 267.11 161.04 265.28 C 148.35 265.20 135.58 264.49 122.96 266.22 C 113.86 266.71 104.87 268.29 95.91 269.94 C 95.61 247.51 95.89 225.08 95.59 202.65 Z" />
<path fill="#ffffff" opacity="1.00" d=" M 140.07 308.11 C 155.56 305.82 171.98 309.92 184.20 319.80 C 195.62 328.43 202.97 341.97 205.10 356.03 C 205.64 363.66 205.72 371.51 203.56 378.93 C 200.51 389.45 194.29 398.91 186.26 406.30 C 175.38 415.34 161.13 420.74 146.91 419.95 C 122.30 419.74 99.17 401.22 93.78 377.16 C 93.09 372.76 91.41 368.50 91.52 364.01 C 92.58 350.87 96.72 337.61 105.39 327.46 C 114.29 317.33 126.71 310.16 140.07 308.11 Z" />
</g>
</svg>
