<svg height="512pt" viewBox="-3 0 512 512" width="512pt" xmlns="http://www.w3.org/2000/svg"><path d="m498.777344 43.640625v377.039063c0 19.960937-16.179688 36.152343-36.140625 36.152343h-418.996094c-19.960937 0-36.140625-16.191406-36.140625-36.152343v-377.039063c0-19.960937 16.179688-36.140625 36.140625-36.140625h418.996094c19.960937 0 36.140625 16.179688 36.140625 36.140625zm0 0" fill="#ffc843"/><path d="m498.777344 43.640625v377.039063c0 19.960937-16.179688 36.152343-36.140625 36.152343h-27.316407c19.960938 0 36.140626-16.191406 36.140626-36.152343v-377.039063c0-19.960937-16.179688-36.140625-36.140626-36.140625h27.316407c19.960937 0 36.140625 16.179688 36.140625 36.140625zm0 0" fill="#e79732"/><g fill="#fff"><path d="m146.199219 456.847656c0 26.316406-21.335938 47.652344-47.652344 47.652344-26.320313 0-47.65625-21.335938-47.65625-47.652344 0-26.320312 21.335937-47.65625 47.65625-47.65625 26.316406 0 47.652344 21.335938 47.652344 47.65625zm0 0"/><path d="m61.175781 95.96875c217.183594 5.390625 392.855469 181.0625 398.246094 398.25.140625 5.644531-4.441406 10.28125-10.089844 10.28125h-69.5c-5.429687 0-9.917969-4.296875-10.082031-9.722656-5.058594-168.191406-140.945312-304.078125-309.136719-309.136719-5.425781-.164063-9.722656-4.652344-9.722656-10.082031v-69.5c0-5.648438 4.636719-10.230469 10.285156-10.089844zm0 0"/><path d="m306.539062 493.980469c-5.394531-132.734375-112.394531-239.734375-245.128906-245.128907-5.734375-.234374-10.515625 4.347657-10.515625 10.089844v59.308594c0 5.375 4.210938 9.78125 9.578125 10.070312 89.679688 4.820313 161.78125 76.917969 166.601563 166.601563.285156 5.363281 4.695312 9.578125 10.066406 9.578125h59.308594c5.742187 0 10.324219-4.785156 10.089843-10.519531zm0 0"/></g><path d="m7.5 346.265625c4.140625 0 7.5-3.359375 7.5-7.5v-295.121094c0-15.792969 12.851562-28.644531 28.644531-28.644531h338.164063c4.140625 0 7.5-3.355469 7.5-7.5s-3.359375-7.5-7.5-7.5h-338.164063c-24.066406 0-43.644531 19.578125-43.644531 43.644531v295.121094c0 4.140625 3.359375 7.5 7.5 7.5zm0 0" fill="#474d54"/><path d="m462.636719 0h-48.164063c-4.144531 0-7.5 3.355469-7.5 7.5s3.355469 7.5 7.5 7.5h48.164063c15.792969 0 28.644531 12.851562 28.644531 28.644531v94.027344c0 4.140625 3.355469 7.5 7.5 7.5 4.140625 0 7.5-3.359375 7.5-7.5v-94.027344c0-24.066406-19.582031-43.644531-43.644531-43.644531zm0 0" fill="#474d54"/><path d="m498.78125 162.828125c-4.144531 0-7.5 3.359375-7.5 7.5v250.355469c0 15.535156-12.4375 28.210937-27.875 28.625-11.96875-90.105469-53.117188-173.675782-118.382812-238.941406-75.949219-75.949219-176.691407-119.238282-283.664063-121.894532-4.75-.101562-9.242187 1.648438-12.652344 4.972656-3.425781 3.347657-5.316406 7.824219-5.316406 12.613282v69.5c0 9.570312 7.46875 17.292968 17 17.578125 148.789063 4.476562 271.558594 113.609375 297.117187 256.1875h-49.085937c-10.539063-49.253907-35.101563-94.675781-71.390625-130.964844-46.96875-46.96875-109.230469-74.316406-175.316406-77.003906-4.835938-.195313-9.425782 1.542969-12.914063 4.898437-3.488281 3.347656-5.410156 7.851563-5.410156 12.6875v59.3125c0 9.339844 7.324219 17.050782 16.675781 17.554688 41.523438 2.230468 80.667969 19.738281 110.222656 49.292968 18.300782 18.300782 31.976563 40.28125 40.273438 64.226563h-57.386719c-3.683593-26.867187-26.769531-47.632813-54.628906-47.632813-27.863281 0-50.949219 20.765626-54.628906 47.632813h-.273438c-15.792969 0-28.644531-12.851563-28.644531-28.644531v-49.4375c0-4.140625-3.355469-7.5-7.5-7.5-4.140625 0-7.5 3.359375-7.5 7.5v49.4375c0 24.0625 19.578125 43.644531 43.644531 43.644531h.269531c3.660157 26.882813 26.757813 47.671875 54.632813 47.671875s50.96875-20.789062 54.632813-47.675781h61.808593c2.476563 10.105469 4.027344 20.472656 4.59375 31 .503907 9.351562 8.214844 16.675781 17.558594 16.675781h59.308594c4.835937 0 9.339843-1.921875 12.691406-5.40625 3.351563-3.492188 5.089844-8.078125 4.894531-12.917969-.402344-9.882812-1.367187-19.675781-2.855468-29.351562h48.640624c1.300782 10.085937 2.125 20.316406 2.4375 30.679687.285157 9.527344 8.007813 16.996094 17.574219 16.996094h69.503907c4.785156 0 9.265624-1.886719 12.609374-5.316406 3.328126-3.40625 5.09375-7.902344 4.976563-12.652344-.25-9.984375-.851563-19.917969-1.800781-29.777344 22.914062-1.292968 41.160156-20.339844 41.160156-43.570312v-250.355469c0-4.140625-3.359375-7.5-7.5-7.5zm-400.234375 334.171875c-22.140625 0-40.15625-18.011719-40.15625-40.152344 0-22.144531 18.015625-40.15625 40.15625-40.15625s40.152344 18.015625 40.152344 40.15625-18.011719 40.152344-40.152344 40.152344zm199.773437-.796875c-.289062.296875-.910156.796875-1.871093.796875h-59.308594c-1.371094 0-2.503906-1.089844-2.578125-2.480469-2.429688-45.222656-21.492188-87.851562-53.664062-120.023437-32.175782-32.175782-74.800782-51.234375-120.023438-53.664063-1.390625-.074219-2.480469-1.210937-2.480469-2.578125v-59.3125c0-.960937.5-1.582031.796875-1.871094.289063-.273437.898438-.726562 1.804688-.726562.035156 0 .074218 0 .109375.003906 62.3125 2.53125 121.023437 28.320313 165.320312 72.621094 44.296875 44.296875 70.089844 103.007812 72.621094 165.316406.039063.96875-.441406 1.617188-.726563 1.917969zm152.886719.007813c-.289062.292968-.914062.789062-1.875.789062h-69.503906c-1.382813 0-2.542969-1.097656-2.582031-2.449219-5.179688-172.242187-144.164063-311.226562-316.40625-316.40625-1.351563-.042969-2.449219-1.199219-2.449219-2.585937v-69.5c0-.960938.496094-1.585938.789063-1.875.339843-.328125.914062-.714844 1.738281-.714844h.066406c103.109375 2.558594 200.214844 44.289062 273.429687 117.503906 73.21875 73.21875 114.949219 170.324219 117.507813 273.433594.023437.863281-.375 1.457031-.714844 1.804688zm0 0" fill="#474d54"/><path d="m374.9375 62.367188c-4.140625 0-7.5 3.355468-7.5 7.5 0 4.140624 3.359375 7.5 7.5 7.5h14.238281c4.140625 0 7.5-3.359376 7.5-7.5 0-4.144532-3.359375-7.5-7.5-7.5zm0 0" fill="#fff"/><path d="m438.535156 93.636719h-63.597656c-4.140625 0-7.5 3.355469-7.5 7.5 0 4.140625 3.359375 7.5 7.5 7.5h63.597656c4.140625 0 7.5-3.359375 7.5-7.5 0-4.144531-3.359375-7.5-7.5-7.5zm0 0" fill="#fff"/><path d="m438.535156 117.359375h-63.597656c-4.140625 0-7.5 3.359375-7.5 7.5 0 4.144531 3.359375 7.5 7.5 7.5h63.597656c4.140625 0 7.5-3.355469 7.5-7.5 0-4.140625-3.359375-7.5-7.5-7.5zm0 0" fill="#fff"/></svg>