<svg version="1" xmlns="http://www.w3.org/2000/svg" width="682.667" height="682.667" viewBox="0 0 512.000000 512.000000"><path d="M35.8 1.5C20 5.8 7.6 18.6 4.1 34.1 3.4 37 3 91.4 3 189.6v151.1l2.1 2.7c2.3 3 7.2 3.5 10.5 1.2 1.9-1.4 1.9-4.4 2.4-154.8.5-140.5.6-153.6 2.2-157 2.4-5.3 9.2-12.3 14.6-15l4.7-2.3 174.8-.5c171.6-.5 174.9-.5 176.3-2.4 2.3-3.3 1.8-8.2-1.2-10.5L386.7 0 213.6.1C75.5.2 39.6.4 35.8 1.5z"/><path d="M412.5 2.5c-3.2 3.1-3.3 7.4-.2 10.3 2.3 2.1 3.1 2.2 25.8 2.2h23.5l2.6 2.7c4.5 4.9 7.7 10.6 9.3 16.8 1.3 5.2 1.5 28.1 1.5 198 0 155.3-.3 193-1.3 197.1-1.4 5.2-6.5 15-7.4 14-.3-.2-1.4-5.6-2.4-11.8-7.7-44.8-25.9-94.7-49.4-135.3-29.1-50.3-71.9-97.2-120.4-131.9-46.3-33-101.6-57-157.6-68.1-29.2-5.8-69.3-9.7-77.3-7.5-5 1.3-10.8 7-12.1 11.8-.7 2.2-1.1 18.1-1.1 40.7 0 33.8.2 37.3 1.9 41 2.1 4.6 5.4 7.9 9.3 9.4 1.5.5 9.4 1.5 17.5 2.1 22.9 1.7 42.4 5 62.3 10.5C239 232.9 320.5 312.3 351.3 413c3.4 11 8.7 32.3 8.7 34.8 0 .9-6.3 1.2-24.2 1.2h-24.3l-1.8-7.8c-3.5-14.9-10.9-34.9-19.1-51.7-14.3-29.2-30.5-51.5-53.8-74-44.8-43.5-99.5-68.3-162-73.6-13.3-1.1-13.8-1.1-18.3 1.1-2.9 1.4-5.6 3.8-7.3 6.3l-2.7 4.1v70.2l2.8 4.3c3.6 5.4 8.7 7.7 19.2 8.6 47.2 4 91.5 28.9 120.7 67.5 7.1 9.5 21.3 35.4 23.3 42.7l.6 2.3h-56.8l-1.2-5.5c-2.8-12.6-13.3-26.9-25-33.9-12-7.3-30.3-9.8-43.2-6-19.2 5.7-34.8 21.8-39.1 40.3l-1.2 5.3-4.5-.6c-6.1-.8-13.9-5.4-17.8-10.5-5.7-7.4-6.3-11.3-6.3-42.1 0-26.4-.1-27.7-2-29.8-3-3.2-8.2-3-10.9.4-2 2.6-2.1 3.9-2.1 30.8 0 31.4.6 36 6.3 45.5 6.6 11 19.9 19.8 31.6 20.8l5.9.6 1.6 6.5c6.5 26.6 33.8 44.6 61.3 40.4 21.7-3.3 40.7-20.7 45.4-41.7l1.2-5.5h30.9c16.9 0 30.8.1 30.8.2 0 .2.6 3.4 1.4 7.3.8 3.8 2 11.7 2.6 17.5 1.4 12.9 3.8 17.8 10.3 20.9 4.1 2 5.9 2.1 37.6 2.1 37.1 0 37.5-.1 43.1-6.9 1.7-1.9 3.3-5.1 3.6-7 .7-3.4-1-27.3-2.2-31.9l-.6-2.2h49l.6 5.7c.4 3.2 1.1 11.2 1.5 17.8 1.1 15.6 3 19.5 11.4 23 3.1 1.3 9.6 1.5 41.4 1.5 34.5 0 38.1-.2 41.8-1.9 8.8-4 11-9.4 10.1-25.6-.4-6.6-.9-13.8-1.2-16.1l-.6-4.1 5-.7c12.6-1.7 26.4-12.4 32.5-25.3l3.2-6.8.3-131.9c.2-124.8.1-132-1.5-133.9-1-1-2.8-2.3-4-2.8-2.1-.8-2.3-1.5-2.3-8.9s.2-8.1 2.3-8.9c1.2-.5 3-1.8 4-2.9 1.7-1.8 1.8-5.2 1.5-55.8l-.3-53.9-3.1-6.5c-5.8-12.2-16.5-21.3-28.9-24.5C471.9.3 464.6 0 442.7 0h-27.8l-2.4 2.5zM100.3 106c86 10.7 161.5 45.4 225 103.5 48.6 44.3 86.9 102.9 108.2 165.5 12.3 36.3 20 77.1 20.7 110l.3 11.5-36.7.3-36.8.2-.4-2.2c-.3-1.3-.8-7-1.1-12.8-3.5-59-26.6-122.2-62.2-170.1-22.2-30-50.7-57.5-80.3-77.5-50.1-33.8-101.5-51.3-165.5-56-4.9-.4-9.3-1.2-9.7-1.8-.4-.6-.8-16.9-.8-36.3 0-29.5.2-35.3 1.4-36 1.7-1 25 .1 37.9 1.7zM84 258.1c37 4.1 75.1 18.3 107.5 40 43.2 29.1 75.1 68.8 94 116.8 8.5 21.9 15.1 51.7 15.7 71.6l.3 10-31.2.3c-36 .3-32.6 1.4-33.7-11.1-2.1-26.6-13.7-58.9-29.9-83.3-29.9-45.1-81.8-76.2-135.2-80.9-4.4-.4-8.6-1.2-9.2-1.7-1.8-1.4-1.9-60.8-.1-62.6 1.2-1.2 3.2-1.1 21.8.9zM114.6 419c15.9 5.5 26.5 20.1 26.8 37 .1 9.8-2.3 17.3-7.8 24.6-15 19.8-43 21.8-60.5 4.3-14.3-14.4-15.3-38.2-2.1-54.2 9.9-11.8 28.5-16.8 43.6-11.7z"/></svg>
